<svg xmlns="http://www.w3.org/2000/svg" xmlns:xlink="http://www.w3.org/1999/xlink" viewBox="0 0 1024 748">
  <defs>
    <symbol id="lowTide-2" data-name="lowTide" viewBox="0 0 1026 105.5">
      <g id="ab02-lowTide">
        <g>
          <rect x="2" y="64.5" width="1024" height="41" style="fill: #e0d0bd"/>
          <rect width="1024" height="12" style="fill: #93c9c7"/>
          <rect y="7" width="1024" height="16" style="fill: #9baaa8"/>
          <path d="M1025,49H1V21c56.58-1.33,142.17-2.73,247-2,87.73.6,96.69,2.06,185,3,136.45,1.45,181.24-1.32,342-2,58.39-.25,144.42-.28,250,1Z" style="fill: #b7b7b7;fill-rule: evenodd"/>
          <path d="M1025,52H1V30c52.92,2.68,134.61,5.91,235,6,104.16.09,123.8-3.3,264-5,97.37-1.18,117.91.09,286,0,103.53-.06,187-.59,239-1Z" style="fill: #bfbbb6;fill-rule: evenodd"/>
          <path d="M794.23,42.26c-27.49,2.16-66.57,4.28-119.62,4.34,14.87,4.46,32.57.94,48,1.77,17.89,1,36.19.9,54.24,1.76,22.36,1.07,44.43-4.16,66.48-3.49,12,.37,23.94,2.8,36,3.66,7,.5,24.53,2.81,30.09-2.58C906,47,901,46,895,44.92,850.35,37.24,816.34,40.53,794.23,42.26Z" style="fill: #baddd9;fill-rule: evenodd"/>
          <path d="M340.49,50.83C282.33,48.7,276.93,48.19,245,47.4c-37.73-.94-81.53-1.57-132-1.61,28.29-5.18,61.95-1.09,91.24-2,34-1.12,68.82-1.06,103.13-2.06,42.53-1.24,84.5,4.84,126.43,4.06,35.48-.66,34.77-3,68.4-4.25C584.29,38.37,659.31,48.17,659,52c-.28,3.41-60.48,3.74-107,4C529.47,56.12,484.28,56.1,340.49,50.83Z" style="fill: #9fccc9;fill-rule: evenodd"/>
          <path d="M1025,73c-29.19,1-73.69,2.13-128,2-91-.22-108.79-3.78-211-6-67.24-1.46-143.24-3.11-241,0-44.32,1.41-78.61,3.34-138,3-51.86-.29-73.72-2-115-3C147.5,68,82.35,67.85,1,73V49c29.46-2.45,77.09-5.65,136-6,83.66-.48,103.73,5.31,213,8,30.3.75,97.39,2.32,184,0,77-2.05,81.88-4.84,134-4,51.46.83,76,4,132,2,38-1.36,44.17-3.46,77-5a942.93,942.93,0,0,1,148,5Z" style="fill: #d1c8bf;fill-rule: evenodd"/>
        </g>
      </g>
    </symbol>
    <symbol id="topTab" data-name="topTab" viewBox="0 0 72.5 57.64">
      <path d="M2.68,1.38H72.5a0,0,0,0,1,0,0V45.93A11.71,11.71,0,0,1,60.79,57.64H14.39A11.71,11.71,0,0,1,2.68,45.93V1.38a0,0,0,0,1,0,0Z" style="fill: #addfdf"/>
      <path d="M.5.5H70.32a0,0,0,0,1,0,0V45.05A11.71,11.71,0,0,1,58.61,56.76H12.21A11.71,11.71,0,0,1,.5,45.05V.5A0,0,0,0,1,.5.5Z" style="fill: #d4f9f9;stroke: #cbf3f4;stroke-miterlimit: 10"/>
    </symbol>
    <symbol id="helpLine" data-name="helpLine" viewBox="0 0 28.69 28.69">
      <path d="M2.14,8.56,6.59,11a8.46,8.46,0,0,0-.67,3.3,8.35,8.35,0,0,0,.63,3.21L2.1,20a13.51,13.51,0,0,1,0-11.48ZM1.76,6.49A4.79,4.79,0,0,1,6.54,1.71H7.82a14.36,14.36,0,0,0-6.06,6ZM20.05,2.11,17.57,6.56a8.31,8.31,0,0,0-3.23-.64,8.22,8.22,0,0,0-3.22.64L8.63,2.11a13.47,13.47,0,0,1,11.42,0Zm2.11-.39a4.78,4.78,0,0,1,4.77,4.77V7.74a14.28,14.28,0,0,0-6.07-6ZM26.59,20l-4.45-2.49a8.35,8.35,0,0,0,.63-3.21A8.46,8.46,0,0,0,22.1,11l4.45-2.48a13.51,13.51,0,0,1,0,11.48Zm.34,2.17A4.78,4.78,0,0,1,22.15,27h-1.3a14.32,14.32,0,0,0,6.08-6v1.26ZM8.57,26.55l2.49-4.44a8.35,8.35,0,0,0,3.28.66,8.46,8.46,0,0,0,3.28-.66l2.49,4.44a13.45,13.45,0,0,1-11.54,0Zm-2,.43a4.78,4.78,0,0,1-4.77-4.77V21a14.32,14.32,0,0,0,6.08,6Zm3.89-5.18L7.94,26.23a13.54,13.54,0,0,1-5.52-5.55L6.85,18.2a8.49,8.49,0,0,0,3.57,3.6Zm10.33,4.43L18.27,21.8a8.55,8.55,0,0,0,3.57-3.6l4.43,2.48a13.54,13.54,0,0,1-5.52,5.55ZM26.23,7.92,21.79,10.4a8.43,8.43,0,0,0-3.58-3.54l2.48-4.44a13.71,13.71,0,0,1,5.54,5.5ZM14.34,6.63a7.72,7.72,0,1,1-7.71,7.71A7.72,7.72,0,0,1,14.34,6.63ZM8,2.43l2.47,4.43A8.47,8.47,0,0,0,6.9,10.4L2.46,7.92A13.62,13.62,0,0,1,8,2.43ZM6.53,27.69H9.41a14.25,14.25,0,0,0,9.86,0h2.88a5.49,5.49,0,0,0,5.49-5.48V19.38a14.21,14.21,0,0,0,0-10.06V6.49A5.49,5.49,0,0,0,22.16,1H19.29A14.18,14.18,0,0,0,9.4,1H6.54A5.49,5.49,0,0,0,1.05,6.49V9.3a14.32,14.32,0,0,0-.93,5,14.05,14.05,0,0,0,.93,5v2.83a5.49,5.49,0,0,0,5.48,5.48Z" style="fill: #7ab5b8;stroke: #7ab5b8;stroke-miterlimit: 10;stroke-width: 0.25px"/>
    </symbol>
    <symbol id="helpTab" data-name="helpTab" viewBox="0 0 72.5 61.97">
      <use width="72.5" height="57.64" transform="translate(0 -0.04) scale(1 1.08)" xlink:href="#topTab"/>
      <text style="font-size: 13px;fill: #7ab5b8;font-family: Quicksand-Bold, Quicksand;font-weight: 700"><tspan x="21.77" y="50.63">Help</tspan></text>
      <use width="28.69" height="28.69" transform="translate(21.91 8.68)" xlink:href="#helpLine"/>
    </symbol>
    <symbol id="anchorLine" data-name="anchorLine" viewBox="0 0 20.35 24.66">
      <path d="M1.4,19.34C2,20.13,5,24,9.93,24.16c5.23.14,8.54-4.1,9.08-4.82" style="fill: none;stroke: #7ab5b8;stroke-linecap: round;stroke-miterlimit: 10"/>
      <g>
        <circle cx="10.2" cy="3" r="2.5" style="fill: none;stroke: #7ab5b8;stroke-linecap: round;stroke-miterlimit: 10"/>
        <line x1="10.37" y1="5.5" x2="10.03" y2="23.5" style="fill: none;stroke: #7ab5b8;stroke-linecap: round;stroke-miterlimit: 10"/>
        <line x1="5.7" y1="10.5" x2="14.7" y2="10.5" style="fill: none;stroke: #7ab5b8;stroke-linecap: round;stroke-miterlimit: 10;stroke-width: 0.904534033733291px"/>
        <g>
          <line x1="0.5" y1="18.5" x2="3" y2="18.5" style="fill: none;stroke: #7ab5b8;stroke-linecap: round;stroke-miterlimit: 10"/>
          <line x1="0.63" y1="21" x2="0.5" y2="18.5" style="fill: none;stroke: #7ab5b8;stroke-linecap: round;stroke-miterlimit: 10"/>
        </g>
        <g>
          <line x1="19.85" y1="18.5" x2="17.35" y2="18.5" style="fill: none;stroke: #7ab5b8;stroke-linecap: round;stroke-miterlimit: 10"/>
          <line x1="19.72" y1="21" x2="19.85" y2="18.5" style="fill: none;stroke: #7ab5b8;stroke-linecap: round;stroke-miterlimit: 10"/>
        </g>
      </g>
    </symbol>
    <symbol id="stopTab" data-name="stopTab" viewBox="0 0 72.5 61.97">
      <use width="72.5" height="57.64" transform="translate(0 -0.04) scale(1 1.08)" xlink:href="#topTab"/>
      <text style="font-size: 13px;fill: #7ab5b8;font-family: Quicksand-Bold, Quicksand;font-weight: 700"><tspan x="20.96" y="50.63">Stop</tspan></text>
      <use width="20.35" height="24.66" transform="translate(33.48 6.93) rotate(23) scale(1.09)" xlink:href="#anchorLine"/>
    </symbol>
    <symbol id="back-2" data-name="back" viewBox="0 0 25.64 24">
      <g>
        <polygon points="0.63 12 9.45 0.5 14.68 0.5 5.86 12 14.68 23.5 9.45 23.5 0.63 12" style="fill: none;stroke: #7ab5b8;stroke-miterlimit: 10"/>
        <polygon points="19.4 0.5 24.63 0.5 15.81 12 24.63 23.5 19.4 23.5 10.58 12 19.4 0.5" style="fill: none;stroke: #7ab5b8;stroke-miterlimit: 10"/>
      </g>
    </symbol>
  </defs>
  <title>fullBg</title>
  <g id="bg">
    <rect width="1024" height="748" style="fill: #c2f2f2"/>
  </g>
  <g id="Canvas">
    <g id="sky">
      <g id="birds">
        <path d="M401.92,90l-1,0a19,19,0,0,0-2.08.25c-.33.06-.68.16-1,.22l-1,.31-1,.37c-.32.15-.67.3-1,.46a10.11,10.11,0,0,0-1,.51c-.33.2-.66.4-1,.61s-.59.43-.89.69a10.48,10.48,0,0,0-.87.73c-.31.26-.58.52-.85.79s-.54.54-.78.82l-.67.78-.68-.78c-.23-.28-.5-.55-.77-.82s-.54-.53-.85-.79a10.48,10.48,0,0,0-.87-.73c-.31-.26-.59-.43-.9-.69s-.62-.41-.95-.61a10.11,10.11,0,0,0-1-.51c-.32-.16-.68-.31-1-.46l-1-.37-1-.31c-.34-.06-.68-.16-1-.22a19.3,19.3,0,0,0-2.08-.25l-1,0c-.36,0-.7,0-1,0l1,.32,1,.33,1,.33,1,.38.94.39.91.45.88.5c.29.17.57.34.87.55l.82.57c.26.23.54.4.8.62s.56.44.78.68a9.87,9.87,0,0,1,.74.69c.22.24.48.47.72.75s.49.51.72.79l.7.8.66.86.65.8v0l0,0,0,0,0,0,0,0v0l.65-.8.67-.86.69-.8c.24-.28.49-.51.73-.79s.49-.51.72-.75a9.87,9.87,0,0,1,.74-.69c.22-.24.51-.45.77-.68s.55-.39.8-.62.54-.36.83-.57.58-.38.86-.55l.89-.5.91-.45c.31-.12.63-.27.93-.39l1-.38,1-.33,1-.33c.35-.1.65-.21,1-.32C402.63,90,402.28,90,401.92,90Z" style="fill: #93c9c7"/>
        <path d="M409.41,103l-.38,0a6.56,6.56,0,0,0-.76.09c-.13,0-.25.06-.38.09l-.38.11-.37.14-.36.18a3.24,3.24,0,0,0-.36.2l-.35.23c-.12.1-.22.16-.33.26s-.22.18-.32.28-.22.2-.32.3a4,4,0,0,0-.28.32l-.25.3-.25-.3c-.09-.11-.19-.21-.29-.32s-.19-.2-.31-.3-.21-.18-.32-.28-.22-.16-.33-.26l-.35-.23a3.24,3.24,0,0,0-.36-.2l-.37-.18-.37-.14-.38-.11-.37-.09a7.12,7.12,0,0,0-.76-.09l-.39,0-.37,0,.37.13.36.12.36.13.36.14.34.15.34.17.32.19a3.05,3.05,0,0,1,.32.22l.31.21c.09.09.2.15.29.24l.29.26c.09.09.19.17.27.26s.18.18.26.29.19.19.27.3l.26.31.24.32.24.31v0h0v0l.23-.31.25-.32.26-.31c.08-.11.18-.19.26-.3s.19-.19.27-.29.18-.17.27-.26a3.79,3.79,0,0,1,.29-.26c.09-.09.2-.15.29-.24l.31-.21c.11-.09.21-.15.31-.22l.33-.19.34-.17.34-.15.36-.14.35-.13.37-.12.37-.13Z" style="fill: #93c9c7"/>
        <path d="M421.49,98.76h-.38a7,7,0,0,0-.77.09L420,99l-.38.12-.37.14-.37.17a3.24,3.24,0,0,0-.36.2l-.35.23c-.11.1-.22.17-.33.26s-.22.18-.32.29-.21.2-.31.3-.2.2-.29.31l-.25.3-.25-.3a2.7,2.7,0,0,0-.28-.31c-.1-.1-.2-.21-.31-.3a3.11,3.11,0,0,0-.33-.29l-.33-.26c-.1-.08-.23-.15-.35-.23a3.24,3.24,0,0,0-.36-.2l-.36-.17-.37-.14-.38-.12c-.13,0-.25-.06-.38-.09a6.56,6.56,0,0,0-.76-.09h-.38l-.38,0,.37.12.37.12.35.13.36.15.34.15.34.17.33.19a2.82,2.82,0,0,1,.31.21l.31.22.29.23a3.79,3.79,0,0,1,.29.26,3.44,3.44,0,0,1,.27.27l.27.28a3.85,3.85,0,0,0,.27.3l.25.31.25.33.24.31v0h0v0l.24-.31.24-.33.26-.31.27-.3c.08-.1.18-.19.26-.28s.18-.18.27-.27l.29-.26.3-.23.3-.22a2.92,2.92,0,0,1,.32-.21l.32-.19.34-.17.34-.15.36-.15.36-.13.36-.12.37-.12Z" style="fill: #93c9c7"/>
      </g>
      <g id="birds-2" data-name="birds">
        <path d="M909.19,372l.79,0a12.69,12.69,0,0,1,1.59.18c.25.05.51.13.76.17l.79.24.77.28.76.35c.24.12.48.24.73.39a6.54,6.54,0,0,1,.73.47c.24.19.45.32.69.52s.45.35.66.56a7.31,7.31,0,0,1,.64.6c.21.2.42.41.6.62l.51.6.51-.6c.18-.21.39-.42.6-.62a7.31,7.31,0,0,1,.64-.6c.21-.21.43-.37.66-.56s.45-.33.69-.52a6.54,6.54,0,0,1,.73-.47c.25-.15.49-.27.73-.39l.76-.35.77-.28.79-.24c.25,0,.51-.12.76-.17a12.69,12.69,0,0,1,1.59-.18l.79,0c.27,0,.53,0,.77,0l-.76.25-.76.24-.73.26-.74.28-.71.3-.7.34-.67.38a7.37,7.37,0,0,0-.66.43c-.22.16-.44.29-.63.43s-.41.3-.61.47-.42.34-.59.52a7.11,7.11,0,0,0-.56.53c-.17.18-.37.35-.55.57s-.38.38-.56.6l-.52.61-.51.65-.5.62v.06l0,0,0,0v-.06l-.5-.62-.51-.65-.52-.61c-.18-.22-.38-.39-.56-.6s-.38-.39-.55-.57a7.11,7.11,0,0,0-.56-.53c-.17-.18-.39-.34-.59-.52s-.42-.3-.61-.47-.41-.27-.63-.43a7.37,7.37,0,0,0-.66-.43l-.67-.38-.7-.34-.71-.3-.74-.28-.73-.26-.76-.24-.76-.25C908.66,372,908.92,372,909.19,372Z" style="fill: #93c9c7"/>
        <path d="M903.48,381.91h.3c.19,0,.38,0,.58.07l.28.07.29.09.29.1.27.14.28.15.27.17a2.43,2.43,0,0,0,.25.2c.08.08.17.14.24.22a2.61,2.61,0,0,1,.24.23l.22.23.19.23.19-.23c.06-.08.14-.15.21-.23l.24-.23.25-.22.25-.2a1.78,1.78,0,0,1,.27-.17,1.82,1.82,0,0,1,.27-.15l.28-.14.28-.1.29-.09L910,382c.2,0,.4-.06.59-.07h.57l-.28.1-.28.09-.27.1-.27.11-.26.11-.26.13-.25.15-.24.16-.23.17c-.07.06-.15.11-.22.18a1.42,1.42,0,0,0-.22.2,1.34,1.34,0,0,0-.21.2c-.06.07-.14.13-.2.21s-.14.15-.21.23l-.19.24-.19.25-.18.23v0h0v0l-.18-.23-.19-.25-.19-.24a2.2,2.2,0,0,1-.2-.23c-.07-.08-.14-.14-.21-.21l-.2-.2-.22-.2a2,2,0,0,0-.23-.18l-.23-.17-.24-.16-.25-.15-.26-.13-.26-.11-.27-.11-.27-.1-.28-.09-.28-.1Z" style="fill: #93c9c7"/>
        <path d="M894.28,378.67h.3c.19,0,.38,0,.58.07l.28.07.29.09.29.11.27.13.28.15.27.18.25.2a2.41,2.41,0,0,1,.24.21l.24.23.22.24.19.23.19-.23c.06-.08.14-.16.21-.24l.24-.23a2.52,2.52,0,0,1,.25-.21,2.43,2.43,0,0,1,.25-.2l.27-.18.27-.15.28-.13.28-.11.29-.09.28-.07c.2,0,.4-.06.59-.07h.29l.28,0-.28.09-.28.1-.27.09-.27.11-.26.12-.26.13-.25.14-.24.16a2.68,2.68,0,0,1-.23.17c-.07.07-.15.12-.22.18a2.19,2.19,0,0,0-.22.2,2,2,0,0,0-.21.2c-.06.07-.14.14-.2.22l-.21.23-.19.23-.19.25-.18.24h0l-.18-.24-.19-.25-.19-.23c-.07-.08-.14-.15-.2-.23l-.21-.22-.2-.2-.22-.2-.23-.18a2.68,2.68,0,0,1-.23-.17l-.24-.16-.25-.14-.26-.13-.26-.12-.27-.11-.27-.09-.28-.1-.28-.09Z" style="fill: #93c9c7"/>
      </g>
    </g>
    <g id="lowtide">
      <g id="ocean">
        <rect y="411" width="1024" height="4" style="fill: #1b828f"/>
        <rect y="415.12" width="1024" height="3.88" style="fill: #4395a8"/>
        <rect y="417.71" width="1024" height="7" style="fill: #3fa1c4"/>
      </g>
      <use id="lowTide-sand" width="1026" height="105.5" transform="translate(-1 421.5)" xlink:href="#lowTide-2"/>
    </g>
    <g id="highTide">
      <g id="back">
        <g id="lowtide-4" data-name="lowtide">
          <rect y="411" width="1024" height="4" style="fill: #1b828f"/>
          <rect y="415.12" width="1024" height="3.88" style="fill: #4395a8"/>
          <rect y="417.71" width="1024" height="7" style="fill: #3fa1c4"/>
        </g>
        <g>
          <rect y="411" width="1024" height="5" style="fill: #487c85"/>
          <rect y="413.94" width="1024" height="12.06" style="fill: #408ba2"/>
          <rect x="2" y="415.65" width="1022" height="11.14" style="fill: #3894bb"/>
          <rect x="2" y="423.43" width="1022" height="11.14" style="fill: #3999ba"/>
          <rect x="2" y="431.21" width="1022" height="11.14" style="fill: #3a9eb9"/>
          <rect x="2" y="438.98" width="1022" height="11.14" style="fill: #3ba3b8"/>
          <rect x="2" y="446.76" width="1022" height="11.14" style="fill: #3ca8b7"/>
          <rect x="2" y="454.54" width="1022" height="11.14" style="fill: #3dadb6"/>
          <rect x="2" y="462.31" width="1022" height="11.14" style="fill: #3eb2b5"/>
        </g>
        <g id="highlights">
          <line x1="1014" y1="426" x2="919.66" y2="426" style="fill: none;stroke: #fff;stroke-linecap: round;stroke-miterlimit: 10;stroke-width: 0.26980385184288px;opacity: 0.5"/>
          <line x1="1004.68" y1="427.5" x2="915" y2="427.5" style="fill: none;stroke: #fff;stroke-linecap: round;stroke-miterlimit: 10;stroke-width: 0.526115399233904px;opacity: 0.5"/>
          <line x1="1008.18" y1="430.46" x2="942.95" y2="430.46" style="fill: none;stroke: #fff;stroke-linecap: round;stroke-miterlimit: 10;stroke-width: 0.904293976816538px;opacity: 0.5"/>
        </g>
      </g>
      <g id="front">
        <rect id="_3rd" data-name="3rd" y="471" width="1024" height="87" style="fill: #68c1c1"/>
        <rect id="second" y="483" width="1024" height="75" style="fill: #6ac9cd"/>
        <rect id="front-2" data-name="front" y="496" width="1024" height="62" style="fill: #8fd5cd"/>
      </g>
      <g id="waveFoam">
        <path d="M1024,478v-6H0v13.25c32.37.67,114.15,2.61,86.09,4.63-33.05,2.38-64.58,2.41-86.09,2V495a463.82,463.82,0,0,0,76.66-2.22c72.27-7.92,100.06,1,177.27,3.25s25.32,2.82-22.86,5.93,3.1,1,58.69,2.83,1.85,2.54-88.95,3.39-148.23-4.81-148.23-4.81S24.32,501.83,0,499.67V502c11,1.05,27.77,2.46,51,3.87l11.15.67c-3.66.29-8.78.53-15.85.57-20.11.12-36.39-1.21-26.15,1.55S34,512.07,12.8,511L0,510.4v2.18c15,.71,49.34,2.1,44.38-.22-6.35-3-25.6-3.74,1.21-3.8,23.19,0,38,.24,42-.51,25.81,1.44,45.53,2.26,65.73,2.41,28.77.23,49.76,1.05,78,.11,87.29-2.9,92.16-.11,112.64,1.34s101.43,5,121.91,3.8,95.09-5.69,109-4.52a531,531,0,0,0,56.32,2.34c24.87-.33,110.32.42,161.89-2.34,15.81-.85,90.95-12.05,91-5.48,0,2.91-6.58,2.21,24.08,3,35,.93,54.74.37,39.38,2.16-12.23,1.43-16.47,2.88-7.32,3.89,11.83,1.32,51.33,1.59,83.75.7V514c-18,.1-35,.18-47.42.22-45.71.14-29-1.84-15.44-4.38s-69.79-2.41-64.85-4.53,84-.7,121.06-.7l6.65,0V502c-45.22.44-79.72.37-83.86-1.29-4.94-2-.61-8.05,46.32-10.74,11.5-.66,24.37-1.31,37.54-1.86v-2.34c-19.65,1.34-62.3,3.76-80.22.92C915.66,482.2,989.3,482.6,1024,478Zm-377.42.37s123.82-4.71,193.76-1.48c71.75,3.32,125.75,4.69,78.7,7C856.14,487,621.06,481.36,646.58,478.39Zm80.09,11c32.89,5.19,41.7,6.86,3.66,6.94-32.51.08-111.52,3-165.09,4.69-18.47.59-37.18.62-55.69.1-41.91-1.2-116.31-3.69-119-6.43-3.71-3.81,93.22-13.67,137.5-15.34C601.23,476.55,693.78,484.16,726.67,489.35Zm-13.16,11.91a361.81,361.81,0,0,1-52.66,4.24c-27.31,0-81.44-1.12-65.83-2.57S761.3,493.45,713.51,501.26Zm-204.07,2.56c-33.6,1.29-50.78.12-59.29-1.09-3.6-.51-1.9-1.78,2.33-1.75C497.62,501.26,530.09,503,509.44,503.82Zm-87.81-26.1c14.08-.09,69.61,2.76,11.67,4C433.3,481.68,407.55,477.81,421.63,477.72Zm-314.84,9.37c-11-.58,60.34-3,60.34-3-2.19,1.76,11,2.34,17.19,4.1S117.76,487.68,106.79,487.09Zm82.4-1.49c-2.56-2.64,46.13-8.39,77.05-9.05,133.12-2.85,184.83,9.2,158.23,10S306.19,490,291.12,489.49C291.12,489.49,191.76,488.24,189.19,485.6Zm22.92,5c28.9-.25,64.74,2.77,100.94,1.68,36.5-1.1,85.94-3.43,75-.92s-46.81,4.93-81.55,4.6C306.47,496,183.22,490.86,212.11,490.6Zm58,10.84a629,629,0,0,1,69.95-3.29c37.52.43,99.6,1.7,96.36,4.66S221.5,503.34,270.14,501.44ZM470.64,513C413.82,515,307.58,508.1,328,506s91.41,1.48,137.73.21,79.68-2.54,79.68-2.54C633.09,503.72,527.47,511.06,470.64,513Zm428-11.17c-51.88,1.07-47.3-1.23-90.1,5.46-25.19,3.94-246.38,6.11-219.52.51a55.68,55.68,0,0,1,11.88-.87c18.65.44,83.33,1.55,114.84-3.31,37.06-5.73,58.83-8.27,91.26-7.53s85.08-1.31,97,.11C923.79,498.58,950.13,500.81,898.68,501.87Zm31.7-5.8c-4,2.07-36.33-4.91-63.64-3.12s-61.92.44-81.43.78-41-5.24-52.17-7.92,70.21,2.12,111.66,2.12c26.37,0,45.84-.73,56.51-1.25a140.33,140.33,0,0,1,26.58,1.09C947.42,490.7,934.16,494.09,930.38,496.07Z" style="fill: #fff;opacity: 0.33"/>
      </g>
    </g>
    <g id="beach">
      <g id="backBeach">
        <g>
          <path d="M3,568.5v-57c11.35-.06,22.82-.08,34.14-.08,46.39,0,93,.45,138.5,1.33,70.33,1.37,119.75,3.39,159.45,5,37.81,1.55,67.67,2.77,99.28,2.76,23,0,45.74-.64,71.53-2l9.58-.53c23.14-1.29,54.83-3.06,99.45-3.47,6.05,0,12.2-.08,18.27-.08,51.73,0,90.82,2,107.52,2.91l3.21.17c29.94,1.54,62.71,2.31,97.38,2.31,54.3,0,115.24-1.89,181.19-5.63V568.5Z" style="fill: #e0d0bd"/>
          <path d="M37.14,508.41v6c46.36,0,92.94.45,138.44,1.33,70.3,1.37,119.7,3.39,159.39,5,37.84,1.55,67.73,2.77,99.4,2.77,23.06,0,45.84-.65,71.69-2l9.59-.53c23.11-1.29,54.76-3.06,99.3-3.47,6.06,0,12.2-.08,18.26-.08,51.63,0,90.67,2,107.34,2.91l3.23.17c30,1.54,62.8,2.32,97.53,2.32,53.48,0,113.4-1.84,178.19-5.47V565.5H6v-51c10.38-.05,20.83-.07,31.14-.07v-6m0,0q-17.92,0-37.14.09v63H1025.5V511c-74.65,4.29-135.2,5.81-184.19,5.81-39.46,0-71.43-1-97.22-2.31-15.34-.79-55.58-3.08-110.88-3.08q-8.91,0-18.31.08c-51.45.47-86.52,2.79-109.16,4-26.93,1.44-49.61,2-71.37,2-64.77,0-121.48-5.1-258.67-7.77-33.71-.65-81-1.33-138.56-1.33Z" style="fill: #d3efe9"/>
        </g>
        <path d="M0,659H1024V517c-109.15-4.76-197.29-3.4-256.25-1.41C640.34,519.9,609.7,528.5,512.5,525c-34-1.23-58.93-3.61-68.59-4.48-55.76-5-72.77-2-156.91-5.52-87.58-3.62-91.92-7.77-165-10-52.53-1.61-95.16-.84-122,0Z" style="fill: #edddc3"/>
      </g>
      <g id="frontBeach">
        <path d="M919.1,562.75C841,561,796.22,552.89,751.34,548.23c-79.53-8.25-68.94,3.44-259.52,7.31-25.14.52-47.85,1-68.48,1.35-54.43-15.67-98.79-25-125.2-27.58-13.87-1.34-28.84-2.26-28.84-2.26-20.15-1.15-37.29-1.15-63.28-1.6A1694.69,1694.69,0,0,1,0,509v57.49H0L.07,636H0V748H1024V560.85C999.91,562.31,963.47,563.77,919.1,562.75Z" style="fill: #ffeccb"/>
      </g>
    </g>
    <g id="postSmall">
      <ellipse cx="858.5" cy="546" rx="21.5" ry="5" style="fill: #dacab2"/>
      <g>
        <g>
          <path d="M883.39,534c.35-10-7.25-18.36-16.6-19.06A18.31,18.31,0,0,0,848,528.84a9.23,9.23,0,0,0,2.28,7.24c1,1.06,2.52,1.62,5.5,2.74a36,36,0,0,0,8.06,2.39,31.73,31.73,0,0,0,8.48,0c3-.31,4.47-.45,6-1.28A11.24,11.24,0,0,0,883.39,534Z" style="fill: #e86348"/>
          <path d="M883.14,533.22a1.28,1.28,0,0,0-.14-.37c-1.45-2.68-6.32-3.57-8-3.8-4.56-.61-4.84.3-9.91,0-4.42-.3-4.87-1-8.72-.89-1.66.06-5.75.45-7.43,2.75a2.24,2.24,0,0,0-.22.4c-.86,2,.52,4.61,1.83,6,.76.81,1.72,1.44,5.51,2.62,1.91.59,4.48,1.3,7.59,1.93a46.28,46.28,0,0,0,8.31-.42c3.2-.46,4.92-.72,6.81-1.92S883.72,535.51,883.14,533.22Z" style="fill: #bc453c"/>
        </g>
        <path d="M878.12,533.61a16.18,16.18,0,0,1,2.27,4.7,16,16,0,0,1,.42,7.19" style="fill: none;stroke: #e86348;stroke-linecap: round;stroke-miterlimit: 10;stroke-width: 3.66792502922495px"/>
        <path d="M853.81,532.37c-1.27,2-2.56,4.23-3.82,6.64-.88,1.68-1.67,3.32-2.38,4.89" style="fill: none;stroke: #e86348;stroke-linecap: round;stroke-miterlimit: 10;stroke-width: 3.66792502922495px"/>
        <path d="M871.48,540a6.41,6.41,0,0,1,.46,2.18,6.79,6.79,0,0,1-1.07,3.78" style="fill: none;stroke: #e86348;stroke-linecap: round;stroke-miterlimit: 10;stroke-width: 3.40272011888502px"/>
        <path d="M857.25,538.33l-2.31,4.3" style="fill: none;stroke: #e86348;stroke-linecap: round;stroke-miterlimit: 10;stroke-width: 3.40272011888502px"/>
        <g>
          <circle cx="861.71" cy="514.99" r="2.54" style="fill: #fff;stroke: #fff;stroke-miterlimit: 10;stroke-width: 0.30566041910208px"/>
          <circle cx="861.85" cy="513.91" r="1.15" style="fill: #4d4e4e"/>
          <ellipse cx="861.65" cy="517.43" rx="1.2" ry="2.85" transform="translate(295.87 1348.13) rotate(-86.73)" style="fill: #e86348"/>
          <path id="L_brow" data-name="L brow" d="M859.15,511.18a3.78,3.78,0,0,1,2-.71,3.88,3.88,0,0,1,2,.33" style="fill: none;stroke: #fff;stroke-linecap: round;stroke-miterlimit: 10;stroke-width: 0.30566041910208px"/>
        </g>
        <g>
          <path id="L_brow-2" data-name="L brow" d="M877.12,513.79a3.78,3.78,0,0,0-1.7-1.25,4,4,0,0,0-2-.24" style="fill: none;stroke: #fff;stroke-linecap: round;stroke-miterlimit: 10;stroke-width: 0.30566041910208px"/>
          <circle cx="873.76" cy="516.74" r="2.54" style="fill: #fff;stroke: #fff;stroke-miterlimit: 10;stroke-width: 0.30566041910208px"/>
          <circle cx="873.93" cy="515.67" r="1.15" style="fill: #4d4e4e"/>
          <ellipse cx="873.12" cy="519.09" rx="1.2" ry="2.85" transform="translate(167.87 1250.13) rotate(-76.76)" style="fill: #e86348"/>
        </g>
        <g id="mouth">
          <path d="M869.68,520.78a2.36,2.36,0,0,1-1.28,1.15,3.22,3.22,0,0,1-1.74.2,2.83,2.83,0,0,1-2.4-2.27v0a0,0,0,0,1,0-.05h0a4.42,4.42,0,0,0,5.3.9,0,0,0,0,1,.06,0,0,0,0,0,1,0,0Z" style="fill: #4d4e4e"/>
        </g>
        <g>
          <path d="M895.3,510.39a5.9,5.9,0,0,1,2.48.09c1.1.32,2.34,1.11,2.23,1.64s-1.79.13-3.39,1.19c-1.22.8-2.33,2.43-1.92,3.48.57,1.45,4.16,1.94,6.2.51,1.66-1.15,1.79-3.19,2.2-3.1s.86,3-.34,5.43a8.68,8.68,0,0,1-6.63,4.61c-4.41.54-9.64-2.53-9.87-6.36S890.08,510.7,895.3,510.39Z" style="fill: #e86348"/>
          <path d="M876.16,528.26c1.78-1.29,3.8-2.63,6.05-3.94a73.93,73.93,0,0,1,7-3.6" style="fill: none;stroke: #e86348;stroke-linecap: round;stroke-miterlimit: 10;stroke-width: 3.40272011888502px"/>
        </g>
      </g>
    </g>
    <g id="LPC">
      <line x1="260.5" y1="247.5" x2="855.5" y2="247.5" style="fill: none;stroke: #fff;stroke-miterlimit: 10"/>
    </g>
    <g id="Rating_Right_Ctrls" data-name="Rating &amp; Right Ctrls">
      <g id="bronze">
        <g>
          <polygon points="1024 322 974.87 322 940.81 322 940.29 322 923 286 1024 286 1024 322" style="fill: #efbd88"/>
          <polygon points="1024 250 974.87 250 940.81 250 940.29 250 923 286 1024 286 1024 250" style="fill: #f7c8a1"/>
        </g>
        <path d="M954.55,262H1023a0,0,0,0,1,0,0v49a0,0,0,0,1,0,0H954.55a8,8,0,0,1-8-8V270A8,8,0,0,1,954.55,262Z" style="fill: #efbd88"/>
        <text transform="translate(958.4 285.06)" style="font-size: 14px;fill: #fff;font-family: Quicksand-Bold, Quicksand;font-weight: 700">Try<tspan x="0" y="16.8">Again</tspan></text>
      </g>
      <g id="silver">
        <g>
          <polygon points="1024 243 974.87 243 940.81 243 940.29 243 923 207 1024 207 1024 243" style="fill: #f0f9fc"/>
          <polygon points="1024 171 974.87 171 940.81 171 940.29 171 923 207 1024 207 1024 171" style="fill: #fff"/>
        </g>
        <path d="M954.55,183H1023a0,0,0,0,1,0,0v49a0,0,0,0,1,0,0H954.55a8,8,0,0,1-8-8V191A8,8,0,0,1,954.55,183Z" style="fill: #f0f9fc"/>
        <text transform="translate(958.1 214.62)" style="font-size: 14px;fill: #408ba2;font-family: Quicksand-Bold, Quicksand;font-weight: 700">Good</text>
      </g>
      <g id="gold">
        <g>
          <polygon points="1024 165 975.16 165 941.3 165 940.78 165 923.59 129 1024 129 1024 165" style="fill: #ffc95f"/>
          <polygon points="1024 93 975.16 93 941.3 93 940.78 93 923.59 129 1024 129 1024 93" style="fill: #ffd576"/>
        </g>
        <path d="M955,105h68a0,0,0,0,1,0,0v49a0,0,0,0,1,0,0H955a8,8,0,0,1-8-8V113A8,8,0,0,1,955,105Z" style="fill: #ffc95f"/>
        <text transform="translate(958 136.06)" style="font-size: 14px;fill: #fff;font-family: Quicksand-Bold, Quicksand;font-weight: 700">Great</text>
      </g>
    </g>
    <g id="header">
      <g id="TopUI">
        <g id="pic">
          <g>
            <rect x="885.91" y="10.44" width="4.97" height="1.95" style="fill: #7ab5b8"/>
            <rect x="882" y="11.79" width="36" height="25.31" rx="6" style="fill: #8fd5cd"/>
            <path d="M882,33.54h36a0,0,0,0,1,0,0v0a3.37,3.37,0,0,1-3.37,3.37H885.37A3.38,3.38,0,0,1,882,33.54v0a0,0,0,0,1,0,0Z" style="fill: #93c9c7"/>
            <path d="M882,14h28.31a6,6,0,0,1,6,6v6a6,6,0,0,1-6,6H882a0,0,0,0,1,0,0V14A0,0,0,0,1,882,14Z" style="fill: #cdf9f8"/>
            <circle cx="902.83" cy="24.74" r="8.28" style="fill: #7ab5b8"/>
            <circle cx="902.83" cy="24.74" r="5.33" style="fill: #b8e9ed"/>
            <circle cx="902.83" cy="24.74" r="3.38" style="fill: #8fd5cd"/>
            <rect x="882" y="16.74" width="9.54" height="2.81" style="fill: #93c9c7"/>
            <circle cx="913.94" cy="16.46" r="1.41" style="fill: #baddd9"/>
            <circle cx="900.84" cy="22.76" r="1.41" style="fill: #fff"/>
          </g>
        </g>
        <use width="72.5" height="61.97" transform="translate(952.25 -0.97)" xlink:href="#helpTab"/>
        <use width="72.5" height="61.97" transform="translate(876.73 -0.97)" xlink:href="#stopTab"/>
        <g>
          <use width="20.35" height="24.66" transform="matrix(1.01, 0.43, -0.43, 1.01, 834.67, 1.98)" xlink:href="#anchorLine"/>
          <use width="72.5" height="57.64" transform="translate(800.96 -1.01) scale(1.01 1.08)" xlink:href="#topTab"/>
          <text/>          <text transform="translate(822.06 49.97)" style="font-size: 13.080545425415039px;fill: #7ab5b8;font-family: Quicksand-Bold, Quicksand;font-weight: 700">Back</text>
          <use width="25.64" height="24" transform="translate(822 12) scale(1.05 1.04)" xlink:href="#back-2"/>
        </g>
      </g>
      <g id="Title">
        <g id="word">
          <text transform="translate(472.14 60.56)" style="font-size: 24px;fill: #7ab5b8;stroke: #7ab5b8;stroke-miterlimit: 10;stroke-width: 0.5px;font-family: Quicksand-Regular, Quicksand">WORD QUEST</text>
        </g>
      </g>
    </g>
  </g>
</svg>
