<svg xmlns="http://www.w3.org/2000/svg" viewBox="0 0 951 22.98">
  <title>foamLong</title>
  <g id="foamLong">
    <path id="foamShape" d="M950.94,10.74A153.79,153.79,0,0,0,924.58,8.8c-11.64.15-25.21,1.66-31.24,3.51-6.79-.32-14.33-.49-22.29-.49-5.17,0-10.16.07-14.88.21C849.87,10.43,840,9.4,829,9.4A140.59,140.59,0,0,0,807,11c-3.85-.23-8-.36-12.4-.36-4.87,0-9.5.16-13.69.45.72-.5,1.12-1,1.12-1.55,0-3.2-13.81-5.79-30.85-5.79-10.53,0-19.83,1-25.4,2.51a158.33,158.33,0,0,0-18.94-1.06c-4.41,0-8.62.16-12.5.44A119.39,119.39,0,0,0,672.1,3.72C661,3.72,651,5,644.69,6.87c-4.76-.16-9.79-.25-15-.25-7.69,0-15,.19-21.62.54C603.05,4.73,590.45,3,575.7,3c-12.53,0-23.51,1.25-29.61,3.12-8-.82-18.46-1.32-29.88-1.32-19.46,0-36.08,1.44-42.71,3.47C464.76,8,455.12,7.82,445,7.82c-6.88,0-13.51.07-19.8.21C416.8,6.43,403.72,5.4,389,5.4A248.07,248.07,0,0,0,359.71,7c-5.12-.23-10.68-.36-16.49-.36-9.23,0-17.81.32-25,.88C310.87,6.23,298.61,5.4,284.7,5.4A247.46,247.46,0,0,0,254.49,7a134.86,134.86,0,0,0-13.77,1.49c-7.1-.56-15.58-.88-24.69-.88-5.74,0-11.23.13-16.29.36A241.82,241.82,0,0,0,170.82,6.4c-14.53,0-27.45,1-35.72,2.63-6.21-.14-12.76-.21-19.55-.21-10,0-19.54.16-28.16.45-6.55-2-23-3.47-42.17-3.47C20.24,5.8,0,8.23,0,11.23s20.24,5.43,45.22,5.43c2.35,0,4.66,0,6.91-.06,11.35,1.82,35.48,3.08,63.42,3.08,11.75,0,22.82-.22,32.56-.61,6.67.58,14.43.91,22.71.91a234.89,234.89,0,0,0,30.64-1.79c4.57.18,9.47.29,14.57.29,17.39,0,32.48-1.18,40-2.91,5.35.31,11.37.49,17.74.49a248.23,248.23,0,0,0,28.93-1.48c7.68,1.72,22.92,2.9,40.48,2.9,5.16,0,10.12-.11,14.75-.29A240.89,240.89,0,0,0,389,19c8.38,0,16.23-.33,23-.91,9.86.39,21.07.61,33,.61,28.29,0,52.73-1.26,64.23-3.08,2.28,0,4.62.06,7,.06A280,280,0,0,0,550,13.89,135,135,0,0,0,575.7,16c1.81,0,3.58,0,5.31-.07,8.71,2.18,27.23,3.69,48.68,3.69,9,0,17.51-.27,25-.74A130.66,130.66,0,0,0,672.1,20a115.84,115.84,0,0,0,23.53-2.16c3.51.23,7.26.35,11.18.35A157.4,157.4,0,0,0,726,17.1c5.58,1.19,14.51,2,24.59,2,4.85,0,9.43-.18,13.5-.49,5.76,1.73,17.24,2.91,30.48,2.91,3.88,0,7.61-.11,11.09-.29A136.63,136.63,0,0,0,829,23a154.9,154.9,0,0,0,17.29-.91c7.41.39,15.83.61,24.78.61,22.14,0,41.14-1.36,49.29-3.31,2.28.17,3.87.27,4.24.29,11.06.68,20.21.56,26.42.34Z" style="fill: #f0f9fc;opacity: 0.8"/>
    <path id="foamShape-2" data-name="foamShape" d="M950.94,7.74A153.79,153.79,0,0,0,924.58,5.8c-11.64.15-25.21,1.66-31.24,3.51C886.55,9,879,8.82,871.05,8.82c-5.17,0-10.16.07-14.88.21C849.87,7.43,840,6.4,829,6.4A140.59,140.59,0,0,0,807,8c-3.85-.23-8-.36-12.4-.36-4.87,0-9.5.16-13.69.45.72-.5,1.12-1,1.12-1.55,0-3.2-13.81-5.79-30.85-5.79-10.53,0-19.83,1-25.4,2.51a158.33,158.33,0,0,0-18.94-1.06c-4.41,0-8.62.16-12.5.44A119.39,119.39,0,0,0,672.1.72C661,.72,651,2,644.69,3.87c-4.76-.16-9.79-.25-15-.25-7.69,0-15,.19-21.62.54C603.05,1.73,590.45,0,575.7,0c-12.53,0-23.51,1.25-29.61,3.12-8-.82-18.46-1.32-29.88-1.32-19.46,0-36.08,1.44-42.71,3.47C464.76,5,455.12,4.82,445,4.82c-6.88,0-13.51.07-19.8.21C416.8,3.43,403.72,2.4,389,2.4A248.07,248.07,0,0,0,359.71,4c-5.12-.23-10.68-.36-16.49-.36-9.23,0-17.81.32-25,.88C310.87,3.23,298.61,2.4,284.7,2.4A247.46,247.46,0,0,0,254.49,4a134.86,134.86,0,0,0-13.77,1.49c-7.1-.56-15.58-.88-24.69-.88-5.74,0-11.23.13-16.29.36A241.82,241.82,0,0,0,170.82,3.4c-14.53,0-27.45,1-35.72,2.63-6.21-.14-12.76-.21-19.55-.21-10,0-19.54.16-28.16.45-6.55-2-23-3.47-42.17-3.47C20.24,2.8,0,5.23,0,8.23s20.24,5.43,45.22,5.43c2.35,0,4.66,0,6.91-.06,11.35,1.82,35.48,3.08,63.42,3.08,11.75,0,22.82-.22,32.56-.61,6.67.58,14.43.91,22.71.91a234.89,234.89,0,0,0,30.64-1.79c4.57.18,9.47.29,14.57.29,17.39,0,32.48-1.18,40-2.91,5.35.31,11.37.49,17.74.49a248.23,248.23,0,0,0,28.93-1.48c7.68,1.72,22.92,2.9,40.48,2.9,5.16,0,10.12-.11,14.75-.29A240.89,240.89,0,0,0,389,16c8.38,0,16.23-.33,23-.91,9.86.39,21.07.61,33,.61,28.29,0,52.73-1.26,64.23-3.08,2.28,0,4.62.06,7,.06A280,280,0,0,0,550,10.89,135,135,0,0,0,575.7,13c1.81,0,3.58,0,5.31-.07,8.71,2.18,27.23,3.69,48.68,3.69,9,0,17.51-.27,25-.74A130.66,130.66,0,0,0,672.1,17a115.84,115.84,0,0,0,23.53-2.16c3.51.23,7.26.35,11.18.35A157.4,157.4,0,0,0,726,14.1c5.58,1.19,14.51,2,24.59,2,4.85,0,9.43-.18,13.5-.49,5.76,1.73,17.24,2.91,30.48,2.91,3.88,0,7.61-.11,11.09-.29A136.63,136.63,0,0,0,829,20a154.9,154.9,0,0,0,17.29-.91c7.41.39,15.83.61,24.78.61,22.14,0,41.14-1.36,49.29-3.31,2.28.17,3.87.27,4.24.29,11.06.68,20.21.56,26.42.34Z" style="fill: #aeedeb"/>
  </g>
</svg>
