<svg xmlns="http://www.w3.org/2000/svg" viewBox="0 0 64 64">
  <g style="fill: #88d8e5">
    <path class="cls-1" d="M16.88,64H11a8.75,8.75,0,0,1-8.74-8.75V8.75A8.75,8.75,0,0,1,11,0h5.89a8.75,8.75,0,0,1,8.74,8.75v46.5A8.75,8.75,0,0,1,16.88,64ZM11,3.06A5.69,5.69,0,0,0,5.31,8.75v46.5A5.69,5.69,0,0,0,11,60.94h5.89a5.69,5.69,0,0,0,5.68-5.69V8.75a5.69,5.69,0,0,0-5.68-5.69Z"/>
    <path class="cls-1" d="M53,64H47.12a8.75,8.75,0,0,1-8.74-8.75V8.75A8.75,8.75,0,0,1,47.12,0H53a8.75,8.75,0,0,1,8.74,8.75v46.5A8.75,8.75,0,0,1,53,64ZM47.12,3.06a5.69,5.69,0,0,0-5.68,5.69v46.5a5.69,5.69,0,0,0,5.68,5.69H53a5.69,5.69,0,0,0,5.68-5.69V8.75A5.69,5.69,0,0,0,53,3.06Z"/>
  </g>
</svg>
