<svg xmlns="http://www.w3.org/2000/svg" viewBox="0 0 64 64">
  <g style="fill: #88d8e5">
    <path d="M55.35,21.33,21.29,1.67A12.17,12.17,0,0,0,15.15,0,12.34,12.34,0,0,0,2.81,12.34V51.66A12.34,12.34,0,0,0,15.15,64a12.17,12.17,0,0,0,6.14-1.67L55.35,42.67A12.32,12.32,0,0,0,55.35,21.33Z"/>
  </g>
  <g style="fill: #f0f9fc">
    <path class="cls-2" d="M53.85,40.07,19.79,59.73A9.15,9.15,0,0,1,15.15,61a9.36,9.36,0,0,1-9.34-9.34V12.34A9.36,9.36,0,0,1,15.15,3h0a9.15,9.15,0,0,1,4.64,1.27L53.85,23.93a9.32,9.32,0,0,1,0,16.14Z"/>
  </g>
</svg>
