<svg xmlns="http://www.w3.org/2000/svg" viewBox="0 0 100 100">

  <g style="fill: #dba961">
    <path d="M46.21,5c2-5.51,5.56-5,7.83.92l7.85,19.84.75,1.89c1.48,3.6,5.26,7.23,9.7,9.7A25.17,25.17,0,0,0,80,40.18l7.75,1.34c7.24,1.19,9.37,5.32,4.71,9.37l-6.56,5.92C81.18,61.19,79,69.07,81.13,74.14l.41,1L84.42,82c2.1,4.88-1.37,7.26-7.72,5.25l-4.36-1.54L60,81.3C53.74,78.83,43.5,80,37.28,84.08L27.45,91l-8.82,6.16c-6.26,4.63-9.32,2.93-6.8-3.79l5.73-15a17,17,0,0,0,.88-3.22c1-6.05-.66-13.36-4.38-17.7L7.3,49.26c-4.39-5.5-2-10.7,5.35-11.41L21.83,37a20.5,20.5,0,0,0,5.62-1.36c5-2,9.48-5.76,11.23-9.89.08-.2.17-.41.24-.62Z"/>
  </g>

  <g style="fill: #efbb60">
    <path d="M44.74,9.47c2.29-7,3.82-8.39,4.82-8.31,2.85.23,2.19,12.84,9.95,27.29,1.94,3.6,4.63,7.76,9.57,10.6a22.48,22.48,0,0,0,7,2.59l7.09,1.23c6.63,1.09,8.58,4.87,4.32,8.57l-6,5.42c-4.29,4-6.25,11.23-4.34,15.88l.38.89,2.64,6.26c1.93,4.46-1.26,6.65-7.07,4.81l-4-1.42-11.26-4C52.05,77,42.67,78.08,37,81.84l-9,6.3L19.9,93.78c-5.73,4.23-8.54,2.68-6.23-3.47l5.25-13.73a15.63,15.63,0,0,0,.81-3c1-5.54-.61-12.23-4-16.2L9.53,50c-1.68-2.68-3.73-6.78-2.14-9.6,2.69-4.77,13-.91,21.68-4.75C34.47,33.22,41.11,27.05,44.74,9.47Z"/>
  </g>

  <g style="fill: #ffc95f">
    <path d="M49.56,6.89c4,.31-.18,25.13,13.25,34.44,8,5.52,18.28,3,19.28,7.13.84,3.51-6.72,5.22-9.64,13.06-3.38,9.06,3,16.8,0,19C69.1,83,62.1,72.44,50.76,72.21c-13-.26-21.7,13.32-25.3,10.69-2.82-2.06,2-8.54,0-17.81-3.05-14-18.63-19.16-16.87-23.76,1.59-4.14,13.76,1.34,24.1-4.75C46.39,28.51,45.84,6.61,49.56,6.89Z"/>
  </g>

  <g style="fill: #fff2d6" class="armRight">
    <path  d="M55,51.36a2.3,2.3,0,1,0,2.37,2.3A2.51,2.51,0,0,0,56.6,52,2.55,2.55,0,0,0,55,51.36Z"/>
    <path d="M67.71,49.8a2.21,2.21,0,0,0-1.27-1.4,1.85,1.85,0,0,0-1.12-.1,2,2,0,0,0-1.53,2.19A2.08,2.08,0,0,0,66.18,52,1.82,1.82,0,0,0,67.71,49.8Z"/>
    <path d="M74,47.55a2.21,2.21,0,0,0-.84.31,1.47,1.47,0,0,0-.66,1.28c.13.72,1.23,1.12,2.09,1s1.66-.89,1.5-1.6A1.73,1.73,0,0,0,74,47.55Z"/>
    <path d="M90,46.07a1.37,1.37,0,0,0-.37-.66,1.07,1.07,0,0,0-.88-.31A1.12,1.12,0,0,0,88,46.41a1.17,1.17,0,0,0,1.24,1A1,1,0,0,0,90,46.07Z"/>
    <path d="M84.24,47.07c-.12-.52-1-.77-1.06-.8a2.12,2.12,0,0,0-1.08,0c-.77.19-1.75.88-1.62,1.46s1.11,1,2.14.81S84.38,47.7,84.24,47.07Z"/>
  </g>

  <g style="fill: #fff2d6" class="legLeft">
    <path d="M40.73,63a2.3,2.3,0,1,0,0,4.59,2.3,2.3,0,1,0,0-4.59Z"/>
    <path d="M33.63,74.48a2.41,2.41,0,0,0,.76.28,2.48,2.48,0,0,0,.94,0,1.94,1.94,0,0,0,1.2-.72,1.69,1.69,0,0,0-.74-2.49,2.29,2.29,0,0,0-2.9.44A1.69,1.69,0,0,0,33.63,74.48Z"/>
    <path d="M25.14,87.14a1.59,1.59,0,0,0,.29-1.35,1.39,1.39,0,0,0-.56-.7,1.82,1.82,0,0,0-2.25.64,1.34,1.34,0,0,0,.26,2A1.83,1.83,0,0,0,25.14,87.14Z"/>
    <path d="M31.21,80.91a1.43,1.43,0,0,0-.37-2.18,1.94,1.94,0,0,0-2.43.61,1.44,1.44,0,0,0,.36,2.19A2,2,0,0,0,31.21,80.91Z"/>
    <path d="M14.67,96.62a1.33,1.33,0,0,0,1.66-.11.84.84,0,0,0,0-.85,1.17,1.17,0,0,0-.55-.51c-.51-.25-1.36-.3-1.66.11S14.05,96.27,14.67,96.62Z"/>
    <path d="M17.83,92.35a1.47,1.47,0,0,0,1.15,0,1.84,1.84,0,0,0,1-.78c.38-.62.5-1.71-.08-2a1.83,1.83,0,0,0-2.16.77C17.17,91.1,17.21,92,17.83,92.35Z"/>
  </g>

  <g style="fill: #fff2d6" class="legRight">
    <path d="M57.38,60.74a2.35,2.35,0,1,0,1.34.41A2.46,2.46,0,0,0,57.38,60.74Z"/>
    <path class="cls-1" d="M65.23,71.89a1.66,1.66,0,0,0,0-2.57,2.32,2.32,0,0,0-2.94.24,1.66,1.66,0,0,0,0,2.57A2.29,2.29,0,0,0,65.23,71.89Z"/>
    <path  d="M69.56,74.12A1.86,1.86,0,0,0,67.2,74a1.05,1.05,0,0,0-.33.73,1.63,1.63,0,0,0,.69,1.31,1.87,1.87,0,0,0,2.37.09,1.17,1.17,0,0,0,.17-1.4A2,2,0,0,0,69.56,74.12Z"/>
    <path d="M80.47,84.38a1.11,1.11,0,0,0,.42-.85.88.88,0,0,0-.27-.59,1.34,1.34,0,0,0-1.64.28c-.49.48-.55,1.13-.14,1.45A1.32,1.32,0,0,0,80.47,84.38Z"/>
    <path class="cls-1" d="M75.7,81.28c.49-.48.25-1.36-.54-2a1.87,1.87,0,0,0-2.31-.25c-.49.47-.25,1.36.53,2a2.52,2.52,0,0,0,1.34.54A1.37,1.37,0,0,0,75.7,81.28Z"/>
  </g>

  <g style="fill: #fff2d6" class="armLeft">
    <path  d="M45.47,53.66a2.3,2.3,0,1,0,0,4.59,2.56,2.56,0,0,0,1.79-.8,2.29,2.29,0,0,0,.57-1.5A2.43,2.43,0,0,0,45.47,53.66Z"/>
    <path d="M33,53a1.78,1.78,0,0,0-.12,1.17A1.94,1.94,0,0,0,34,55.41a2.12,2.12,0,0,0,1.65-.06,2.08,2.08,0,0,0,1-1,1.82,1.82,0,0,0,.12-1.17,1.76,1.76,0,0,0-1.16-1.23A2.18,2.18,0,0,0,33,53Z"/>
    <path d="M25.54,50.94a2.15,2.15,0,0,0,1.91-.19,1,1,0,0,0,.35-.43A1.17,1.17,0,0,0,27.45,49a2.32,2.32,0,0,0-.78-.47,1.82,1.82,0,0,0-2.26.62C24.09,49.8,24.6,50.61,25.54,50.94Z"/>
    <path  d="M10.83,43.28a1,1,0,0,0,.43,1.41,1.25,1.25,0,0,0,1.43-.75,1.14,1.14,0,0,0,.06-.93,1,1,0,0,0-.49-.48A1.27,1.27,0,0,0,10.83,43.28Z"/>
    <path d="M16.24,46.06c-.27.6.3,1.36,1.28,1.71a2.19,2.19,0,0,0,1.27.15c.21-.05.85-.18,1-.6s-.5-1.43-1.28-1.71C17.54,45.27,16.52,45.47,16.24,46.06Z"/>
  </g>

  <g style="fill: #fff2d6" id="head">
    <path d="M52.17,33.69a2.22,2.22,0,0,1-4.34,0A2,2,0,0,1,50,32a2.13,2.13,0,0,1,1.47.47A1.77,1.77,0,0,1,52.17,33.69Z"/>
    <path d="M50,43.52a2.3,2.3,0,1,0,2.37,2.3,2.5,2.5,0,0,0-1-1.88A2.46,2.46,0,0,0,50,43.52Z"/>
    <path d="M48.5,18.31a1.5,1.5,0,1,0,3,0,1.64,1.64,0,0,0-.58-1.26,1.42,1.42,0,0,0-.92-.33A1.63,1.63,0,0,0,48.5,18.31Z"/>
    <path d="M48.33,25.92a1.67,1.67,0,1,0,.53-1.22A1.67,1.67,0,0,0,48.33,25.92Z"/>
    <path d="M50,9.47a1.53,1.53,0,0,0-1.33,1.67,1.36,1.36,0,1,0,2.66,0A1.69,1.69,0,0,0,51,10,1.4,1.4,0,0,0,50,9.47Z"/>
    <path d="M50,4.4c-.74,0-1.33.39-1.33.87s.59.87,1.33.87a1.38,1.38,0,0,0,.89-.23c.09-.06.45-.31.44-.64S50.62,4.4,50,4.4Z"/>
  </g>

</svg>
