<svg xmlns="http://www.w3.org/2000/svg" viewBox="0 0 596 97.56">
  <title>waveMain</title>
  <g id="Layer_2" data-name="Layer 2">
    <path id="main_wave" data-name="main wave" d="M0,97.56V10a86.94,86.94,0,0,0,20.17,1.89,81.28,81.28,0,0,0,18-2.58c7.5-2,7.09-3.1,10.89-3.74C58.32,4,63,10.1,72,14a24,24,0,0,0,9,5.19c2.79.84,9.37,2.81,15.91-1.2a46.59,46.59,0,0,0,9.6-4c1.08-.28,2.14-.6,3.19-.94C125.43,7.87,125.82.3,136,0c12.29-.35,15.74,10.6,32.71,11.62,13.44.8,19.19-5.59,32.66-4.57,8.08.62,11.57,3.34,17.52,6.89,1.69,2.1,3.58,4.33,5.84,6.64,21.46,22,51.93,26.81,67.16,29.2,22.11,3.48,21.32-2.34,55.63-.31C375.07,51.1,377.38,55,404,57.21c27.72,2.34,28.55-1.57,70.88-1.69,10.36,0,18,.18,24.19.5,8.86.94,11.48,2.82,23.85,2,18.84-1.2,19.35-6,31.47-3.4,8.84,1.88,13.5,5.51,25.26,6.59A62.75,62.75,0,0,0,596,60.67V97.56H0Z" style="fill: #57d3d5"/>
  </g>
</svg>
