<svg xmlns="http://www.w3.org/2000/svg" viewBox="0 0 84 40">
  <title>fzSign</title>
  <g id="fzSign">
    <path d="M82.67,40H6a6,6,0,0,1-6-6V5A5,5,0,0,1,5,0H78a6,6,0,0,1,6,6V38.67A1.34,1.34,0,0,1,82.67,40Z" style="fill: #c7b299"/> <!-- ad9984-->
    <path d="M78.05,38.18H4A4.06,4.06,0,0,1,1.17,37,4,4,0,0,1,0,34.18V4A4,4,0,0,1,4,0H78.05a4.09,4.09,0,0,1,2.82,1.17A4,4,0,0,1,82.05,4V34.18A4,4,0,0,1,78.05,38.18Z" style="fill: #fcf3dc"/>
    <path d="M78.05,38.18H45.79V0H78.05a4,4,0,0,1,4,4V34.18A4,4,0,0,1,78.05,38.18Z" style="fill: #f9e3c7"/>
    <path d="M10.57,0H4A4,4,0,0,0,0,4V34.18a4,4,0,0,0,4,4h6.57Z" style="fill: #f9e3c7"/>
    <path d="M29,23.54H16.11a8.18,8.18,0,0,1-5.65-2.35,8,8,0,0,1-2.35-5.65v-.37a8,8,0,0,1,8-8H29a8,8,0,0,1,5.66,2.34,8.29,8.29,0,0,1,1.71,2.54A8,8,0,0,1,37,15.17v.37A8,8,0,0,1,29,23.54Z" style="fill: #fffaf4"/>
    <path d="M72.76,34.52h-64a6.12,6.12,0,0,1-6.19-6V9.7a6.12,6.12,0,0,1,6.19-6h64a6.12,6.12,0,0,1,6.18,6V28.49A6.12,6.12,0,0,1,72.76,34.52ZM8.74,5.43A4.32,4.32,0,0,0,4.36,9.7V28.49a4.32,4.32,0,0,0,4.38,4.26h64a4.33,4.33,0,0,0,4.38-4.26V9.7a4.33,4.33,0,0,0-4.38-4.27Z" style="fill: #93c9c7"/>
  </g>
</svg>
