<svg xmlns="http://www.w3.org/2000/svg" viewBox="0 0 95 283">
  <title>postBig_1</title>
  <g id="postBig-2" data-name="postBig">
    <g>
      <ellipse cx="54.63" cy="271.05" rx="40.37" ry="4.51" style="fill: #ecddc3"/>
      <ellipse cx="42.17" cy="269.05" rx="34.89" ry="2.51" style="fill: #998675"/>
      <g>
        <rect x="20.24" width="51.83" height="270.55" style="fill: #998675"/>
        <rect x="20.24" width="26.91" height="270.55" style="fill: #ad9984"/>
        <path d="M29.19,126.26h-3a6,6,0,0,1-6-6V0h15V120.26A6,6,0,0,1,29.19,126.26Z" style="fill: #c7b299"/>
        <path d="M65.08,92.19H62.13a6,6,0,0,0-6,6V269.55H71.08V98.19A6,6,0,0,0,65.08,92.19Z" style="fill: #847263"/>
      </g>
      <path d="M4.77,255.5c1-1.14,4.09-4.91,8.49-5s5.55,3.63,12,8c2.59,1.78,9.24,4.08,22.52,8.67,1.7.58,5.26,1.92,10.31,3.63,1.91.64,4.29,1.5,7.54,2.79,14,5.56,13.68,6.87,13.36,7.3-.46.61-2.39,1.41-11,1.21-8.26-.11-15.64,0-22,.09s-11.83.25-16.15.39c-15.28.51-20.77,1.09-25.31-2.11C-2,275.9-1,262.42,4.77,255.5Z" style="fill: #ffeccb"/>
    </g>
  </g>
</svg>
